<svg xmlns="http://www.w3.org/2000/svg" viewBox="0 0 440 385" width="440" height="385">
	<style>
		tspan { white-space:pre }
		.shp0 { fill: #ffffff } 
	</style>
	<path id="Layer" class="shp0" d="M0 20.18L0 265.36L136.19 142.77L0 20.18L0 20.18Z" />
	<path id="Layer" class="shp0" d="M372.58 0L22.42 0L197.5 157.59L372.58 0L372.58 0Z" />
	<path id="Layer" class="shp0" d="M286.69 167.88C295.16 164 304.03 161.04 313.14 159.06C322.25 157.08 331.55 156.1 340.87 156.12C350.2 156.14 359.49 157.17 368.59 159.19C377.69 161.22 386.54 164.21 395 168.14L395 20.19L258.81 142.78L286.69 167.88Z" />
	<path id="Layer" class="shp0" d="M260.07 184.28L236.38 162.96L197.5 197.96L158.61 162.96L22.42 285.55L211.14 285.55C211.14 275.84 212.23 266.17 214.4 256.7C216.56 247.24 219.79 238.05 224.01 229.31C228.23 220.57 233.43 212.34 239.49 204.76C245.56 197.18 252.46 190.31 260.07 184.28L260.07 184.28Z" />
	<path id="Layer" fill-rule="evenodd" class="shp0" d="M340.57 186.12C353.62 186.13 366.55 188.72 378.6 193.72C390.66 198.72 401.62 206.04 410.85 215.27C420.08 224.5 427.4 235.46 432.4 247.52C437.4 259.57 439.99 272.5 440 285.55C440 325.77 415.77 362.02 378.62 377.41C341.47 392.8 298.7 384.29 270.26 355.86C241.83 327.42 233.32 284.65 248.71 247.5C264.1 210.35 300.35 186.12 340.57 186.12ZM402.24 300.55L402.24 270.55L355.62 270.55L355.62 223.93L325.62 223.93L325.62 270.55L279 270.55L279 300.55L325.57 300.55L325.57 347.16L355.57 347.16L355.57 300.55L402.24 300.55Z" />
</svg>