<svg id="Capa_1" data-name="Capa 1" xmlns="http://www.w3.org/2000/svg" viewBox="0 0 437 437"><defs><style>.cls-1{fill:#fff;}</style></defs><path class="cls-1" d="M284.69,176.5l-115.76,73a5.4,5.4,0,0,0-2.26,6.14l15.53,50.89a1,1,0,0,0,2-.19L188,272.24a5.33,5.33,0,0,1,1.74-3.41l98-88.17C290.08,178.55,287.35,174.82,284.69,176.5Z" transform="translate(-9.37 -9.37)"/><path class="cls-1" d="M227.87,9.37c-120.68,0-218.5,97.82-218.5,218.5s97.82,218.5,218.5,218.5,218.5-97.83,218.5-218.5S348.54,9.37,227.87,9.37Zm100.89,145-36,175.22a11.3,11.3,0,0,1-17.83,6.94l-54.41-40.61-27.72,28.79a9.15,9.15,0,0,1-15.37-3.74l-20-64.59-53.63-16.11c-7-2.11-7.45-12.09-.62-14.8l211.05-83.65C322.22,138.59,330.53,145.74,328.76,154.32Z" transform="translate(-9.37 -9.37)"/></svg>