<svg id="Capa_1" data-name="Capa 1" xmlns="http://www.w3.org/2000/svg" viewBox="0 0 437 437"><defs><style>.cls-1{fill:#fff;}</style></defs><path class="cls-1" d="M278.92,136.18a272.3,272.3,0,0,0-102.12,0c-14.82,3.3-33.47,21.17-37.11,35.54a195.14,195.14,0,0,0,0,83.81c3.64,14.37,22.29,32.24,37.11,35.54h0a1.4,1.4,0,0,1,1.14,1.38v40.73a2.27,2.27,0,0,0,3.9,1.57l19.35-19.86,18.19-18.68a1.44,1.44,0,0,1,1-.41,272.35,272.35,0,0,0,58.49-4.73c14.82-3.3,33.48-21.17,37.12-35.54a195.14,195.14,0,0,0,0-83.81C312.4,157.35,293.75,139.48,278.92,136.18Zm.52,121.42c-3,6.3-7.28,11.53-13.5,14.87-1.75.95-3.85,1.25-5.83,1.86-2.28-.69-4.45-1.15-6.47-2-20.9-8.67-40.13-19.85-55.36-37-8.67-9.75-15.45-20.76-21.18-32.41-2.72-5.52-5-11.26-7.34-17-2.13-5.21,1-10.58,4.31-14.5a34,34,0,0,1,11.4-8.56c3.37-1.62,6.7-.69,9.16,2.17a117.89,117.89,0,0,1,14.16,19.82c2.44,4.41,1.77,9.79-2.64,12.78-1.07.73-2.05,1.59-3.05,2.41a9.84,9.84,0,0,0-2.3,2.43,6.61,6.61,0,0,0-.44,5.83c5.44,15,14.6,26.57,29.65,32.83,2.41,1,4.82,2.17,7.6,1.84,4.64-.54,6.14-5.63,9.4-8.3a8.86,8.86,0,0,1,10.67-.46c3.43,2.17,6.75,4.5,10.06,6.85a117.85,117.85,0,0,1,9.46,7.2C280.07,250.84,281.06,254.17,279.44,257.6Zm-27-48.7c-1.3,0-.79,0-.29,0a3.34,3.34,0,0,1-3.46-3.31,33.44,33.44,0,0,0-.64-4.36,12.3,12.3,0,0,0-4.53-7.11,11.59,11.59,0,0,0-3.69-1.79c-1.68-.48-3.42-.35-5.1-.76a3.11,3.11,0,0,1-2.53-3.62,3.27,3.27,0,0,1,3.46-2.64c10.6.76,18.17,6.24,19.25,18.72a8.4,8.4,0,0,1,0,2.65,2.7,2.7,0,0,1-2.28,2.21C252.7,208.87,252.68,208.88,252.46,208.9Zm-6.59-28.54a37.37,37.37,0,0,0-10.33-3.17c-1.56-.26-3.13-.41-4.7-.63a3.13,3.13,0,0,1,.45-6.25A43.07,43.07,0,0,1,249.2,175c11.34,6,17.82,15.48,19.71,28.14.09.57.22,1.14.27,1.72.1,1.42.17,2.84.28,4.72a12,12,0,0,1-.27,1.9c-.72,2.74-4.88,3.08-5.84.31a8,8,0,0,1-.33-2.64,33.11,33.11,0,0,0-4.19-16.61A31,31,0,0,0,245.87,180.36Zm35,39.12c-2.19,0-3.18-1.81-3.32-3.77-.28-3.89-.47-7.8-1-11.65a48.84,48.84,0,0,0-39.33-40.82c-3.05-.55-6.17-.69-9.26-1-2-.2-4.51-.32-5-2.75a3.35,3.35,0,0,1,3.3-3.76c.52,0,1,0,1.58,0,26.25.74,1.6.06.07,0,27.3.8,49.72,18.93,54.53,45.93.82,4.6,1.11,9.31,1.47,14C284.15,217.59,283,219.46,280.91,219.48Z" transform="translate(-9.37 -9.37)"/><path class="cls-1" d="M227.87,9.37c-120.68,0-218.5,97.82-218.5,218.5s97.82,218.5,218.5,218.5,218.5-97.83,218.5-218.5S348.54,9.37,227.87,9.37ZM335.75,260l-.06.27c-5.45,22-30,45.67-52.58,50.59l-.26,0a293.16,293.16,0,0,1-55,5.22c-5.41,0-10.82-.17-16.22-.48l-24.92,25.9a9.88,9.88,0,0,1-17-6.85V310.1C148,303.9,125.26,281.35,120,260.26L120,260a215.16,215.16,0,0,1,0-92.73L120,167c5.45-22,30-45.67,52.58-50.59l.26-.05a292.2,292.2,0,0,1,110,0l.26.05c22.56,4.92,47.13,28.56,52.58,50.59l.06.27A215.16,215.16,0,0,1,335.75,260Z" transform="translate(-9.37 -9.37)"/></svg>